<?xml version="1.0" encoding="iso-8859-1"?>
<!-- Uploaded to: SVG Repo, www.svgrepo.com, Generator: SVG Repo Mixer Tools -->
<svg height="800px" width="800px" version="1.1" id="Layer_1" xmlns="http://www.w3.org/2000/svg" xmlns:xlink="http://www.w3.org/1999/xlink" 
	 viewBox="0 0 392.533 392.533" xml:space="preserve">
<path style="fill:#56ACE0;" d="M83.362,239.321c-18.877,7.952-32.065,26.57-32.065,48.291v83.071h290.004v-83.071
	c0-18.747-9.956-35.168-24.824-44.412c-3.297,10.279-8.663,21.204-12.412,28.38c5.947,7.046,9.18,17.067,9.18,29.543
	c0.065,15.127-4.655,32.517-13.123,49.002c-1.099,2.133-2.844,3.879-5.042,4.848l-13.188,6.206c-5.883,2.65-11.572,0-14.545-5.236
	c-2.521-5.495-0.259-11.96,5.236-14.545l9.826-4.655c5.818-12.218,9.115-25.018,9.051-35.62c0-8.857-2.392-15.386-6.271-17.39
	c-7.628-3.943-27.216,7.046-41.632,32.905l1.875,10.667c1.099,5.947-2.844,11.572-8.792,12.671
	c-5.947,1.099-11.572-2.844-12.671-8.792l-2.521-14.352c-0.388-2.392-0.065-4.784,1.099-6.982
	c16.485-31.741,41.503-50.618,62.255-48.42c3.814-7.176,8.598-17.261,11.184-25.6c-2.327-0.323-4.655-0.517-7.046-0.517h-46.804
	l-36.073,67.943c-4.461,7.952-14.61,7.564-19.265,0l-36.073-67.943h-45.77c2.004,9.568,6.465,24.954,16.485,42.473
	c1.616-0.259,3.297-0.453,5.107-0.453c17.713,0,32.065,14.352,32.065,32.065s-14.352,32.065-32.065,32.065
	s-32.065-14.352-32.065-32.065c0-8.016,3.038-15.451,7.952-21.075C90.861,268.347,85.689,250.764,83.362,239.321z"/>
<g>
	<path style="fill:#FFFFFF;" d="M126.287,319.677c5.624,0,10.279-4.655,10.279-10.279c0-5.624-4.655-10.279-10.279-10.279
		c-5.624,0-10.279,4.655-10.279,10.279C116.008,315.087,120.663,319.677,126.287,319.677z"/>
	<path style="fill:#FFFFFF;" d="M196.234,21.786c-39.24,0-71.176,31.935-71.176,71.176s31.935,71.176,71.176,71.176
		s71.176-31.935,71.176-71.176S235.475,21.786,196.234,21.786z"/>
</g>
<path style="fill:#FFC10D;" d="M196.234,142.352c-27.216,0-49.39-22.174-49.39-49.39s22.174-49.39,49.39-49.39
	s49.39,22.174,49.39,49.39C245.624,120.242,223.451,142.352,196.234,142.352z"/>
<g>
	<path style="fill:#194F82;" d="M196.234,185.988c51.329,0,92.962-41.697,92.962-92.962C289.196,41.697,247.564,0,196.234,0
		s-92.962,41.697-92.962,93.026C103.273,144.291,144.905,185.988,196.234,185.988z M196.234,21.786
		c39.24,0,71.176,31.935,71.176,71.176s-31.935,71.176-71.176,71.176s-71.176-31.935-71.176-71.176
		C125.059,53.786,156.994,21.786,196.234,21.786z"/>
	<path style="fill:#194F82;" d="M288.808,213.398H235.41c-4.008,0-7.758,2.263-9.632,5.818l-29.543,55.661l-29.543-55.661
		c-1.875-3.556-5.56-5.818-9.632-5.818h-53.398c-40.857,0-74.214,33.293-74.214,74.214v93.996c0,6.012,4.848,10.925,10.925,10.925
		h311.79c6.012,0,10.925-4.849,10.925-10.925v-93.996C362.958,246.756,329.729,213.398,288.808,213.398z M341.172,370.747H51.297
		v-83.135c0-21.721,13.317-40.339,32.065-48.291c2.327,11.378,7.499,28.962,18.877,49.002c-4.913,5.624-7.952,12.994-7.952,21.075
		c0,17.713,14.352,32.065,32.065,32.065s32.065-14.352,32.065-32.065c0-17.713-14.352-32.065-32.065-32.065
		c-1.681,0-3.426,0.129-5.107,0.453c-9.956-17.519-14.481-32.905-16.485-42.473h45.77l36.073,67.943
		c4.655,7.564,14.869,7.952,19.265,0l36.073-67.943h46.804c2.392,0,4.719,0.259,7.046,0.517c-2.651,8.339-7.37,18.295-11.184,25.6
		c-20.816-2.069-45.834,16.679-62.255,48.42c-1.099,2.133-1.487,4.59-1.099,6.982l2.521,14.352
		c1.099,5.947,6.723,9.891,12.671,8.792s9.891-6.723,8.792-12.671l-1.875-10.667c14.481-25.859,34.004-36.848,41.632-32.905
		c3.879,2.004,6.206,8.469,6.271,17.39c0,10.602-3.232,23.402-9.051,35.62l-9.826,4.655c-5.43,2.521-7.822,9.05-5.236,14.545
		c2.844,5.172,8.598,7.822,14.545,5.236l13.188-6.206c2.133-1.034,3.943-2.715,5.042-4.848
		c8.469-16.485,13.123-33.875,13.123-49.002c-0.065-12.412-3.297-22.497-9.18-29.543c3.814-7.176,9.115-18.101,12.412-28.38
		c14.869,9.244,24.824,25.729,24.824,44.412v83.071h0.065V370.747z M116.008,309.398c0-5.624,4.655-10.279,10.279-10.279
		c5.624,0,10.279,4.655,10.279,10.279c0,5.624-4.655,10.279-10.279,10.279C120.663,319.677,116.008,315.087,116.008,309.398z"/>
</g>
</svg>