<?xml version="1.0" encoding="iso-8859-1"?>
<!-- Uploaded to: SVG Repo, www.svgrepo.com, Generator: SVG Repo Mixer Tools -->
<svg version="1.1" id="Layer_1" xmlns="http://www.w3.org/2000/svg" xmlns:xlink="http://www.w3.org/1999/xlink" 
	 viewBox="0 0 512 512" xml:space="preserve">
<path style="fill:#FBB03B;" d="M256,186.648L256,186.648c-26.933,0-48.767-21.834-48.767-48.767V56.602
	c0-26.933,21.834-48.767,48.767-48.767l0,0c26.933,0,48.767,21.834,48.767,48.767v81.278
	C304.767,164.813,282.933,186.648,256,186.648z"/>
<path style="fill:#F7931E;" d="M247.527,137.88V56.602c0-19.672,11.844-36.58,28.619-44.29c-6.192-2.846-12.675-4.477-19.935-4.477
	c-26.933,0-48.383,21.834-48.383,48.767v81.278c0,26.933,21.536,48.767,48.469,48.767c7.261,0,13.806-1.631,19.998-4.477
	C259.52,174.46,247.527,157.552,247.527,137.88z"/>
<path style="fill:#00A99D;" d="M207.232,56.602c0-26.933,21.834-48.767,48.767-48.767s48.767,21.834,48.767,48.767"/>
<g>
	<path style="fill:#007F76;" d="M276.319,12.262c-6.192-2.846-13.058-4.502-20.32-4.502c-26.933,0-48.767,21.579-48.767,48.741
		h40.639C247.872,36.652,259.544,19.973,276.319,12.262z"/>
	<path style="fill:#007F76;" d="M150.338,503.632h-40.639V271.837c0-33.583,27.224-60.807,60.807-60.807h170.986
		c33.583,0,60.807,27.224,60.807,60.807v231.794h-48.767"/>
</g>
<g>
	<rect x="149.321" y="308.569" style="fill:#00A99D;" width="17.27" height="195.07"/>
	<rect x="207.23" y="113.498" style="fill:#00A99D;" width="97.535" height="48.767"/>
</g>
<rect x="207.23" y="113.498" style="fill:#007F76;" width="40.639" height="48.767"/>
<path style="fill:#00A99D;" d="M190.978,503.632h211.323V271.147c0-33.201-26.915-60.116-60.116-60.116H215.36v56.894h-24.384
	v235.707"/>
<g>
	<rect x="215.358" y="211.034" style="fill:#FFFFFF;" width="81.279" height="24.384"/>
	<rect x="207.826" y="292.605" style="fill:#FFFFFF;" width="15.671" height="16.716"/>
	<rect x="207.826" y="316.634" style="fill:#FFFFFF;" width="15.671" height="15.671"/>
	<rect x="207.826" y="340.663" style="fill:#FFFFFF;" width="15.671" height="16.716"/>
	<rect x="207.826" y="365.736" style="fill:#FFFFFF;" width="15.671" height="16.716"/>
	<rect x="207.826" y="389.764" style="fill:#FFFFFF;" width="15.671" height="15.671"/>
	<rect x="207.826" y="413.793" style="fill:#FFFFFF;" width="15.671" height="16.716"/>
	<rect x="207.826" y="438.866" style="fill:#FFFFFF;" width="15.671" height="16.716"/>
	<rect x="207.826" y="463.94" style="fill:#FFFFFF;" width="15.671" height="14.626"/>
</g>
<rect x="337.277" y="308.569" style="fill:#007F76;" width="16.81" height="195.07"/>
<path d="M256,0c-31.21,0-56.602,25.392-56.602,56.602v81.278c0,31.211,25.392,56.603,56.602,56.603s56.602-25.392,56.602-56.603
	V56.602C312.602,25.392,287.21,0,256,0z M256,15.671c20.038,0,36.747,14.477,40.246,33.518h-80.493
	C219.253,30.148,235.962,15.671,256,15.671z M296.931,64.859v41.789h-81.862V64.859H296.931z M231.152,170.376h49.694
	c-6.895,5.285-15.508,8.435-24.847,8.435C246.661,178.812,238.049,175.661,231.152,170.376z M293.298,154.705h-74.596
	c-2.327-5.137-3.634-10.83-3.634-16.825v-15.56h81.862v15.56C296.931,143.876,295.624,149.57,293.298,154.705z"/>
<polygon points="344.686,512 157.681,512 157.681,317.682 149.324,317.682 149.324,302.011 173.352,302.011 173.352,496.329 
	329.016,496.329 329.016,302.011 354.089,302.011 354.089,317.682 344.686,317.682 "/>
<polygon style="fill:#FFFFFF;" points="337.373,268.58 321.703,268.58 321.703,251.864 306.032,251.864 306.032,268.58 
	289.316,268.58 289.316,284.251 306.032,284.251 306.032,300.966 321.703,300.966 321.703,284.251 337.373,284.251 "/>
<path d="M341.493,203.195H170.506c-37.85,0-68.642,30.793-68.642,68.642v239.63h48.474v-15.671h-32.803V271.837
	c0-29.208,23.763-52.972,52.972-52.972h37.322v41.356h-25.073v226.704h15.671V275.893h25.073v-32.386h80.444v-24.641h37.55
	c29.208,0,52.972,23.763,52.972,52.972v223.959h-40.931v15.671h56.603v-239.63C410.136,233.988,379.343,203.195,341.493,203.195z
	 M288.271,227.836h-64.773v-8.97h64.773V227.836z"/>
</svg>